<svg width="155" height="42" viewBox="0 0 155 42" fill="none" xmlns="http://www.w3.org/2000/svg">
<g id="logo white">
<path id="Vector" d="M24.0954 18.2175H21.5701C21.4123 18.2175 21.2019 18.1125 21.2019 17.955C21.2019 17.9025 21.2019 17.9025 21.2019 17.85V6.93C21.2019 5.9325 20.8862 4.935 20.3075 4.1475C19.6236 3.3075 18.5714 2.8875 17.5192 2.94C16.9931 2.94 16.5196 3.045 16.0461 3.3075C15.6252 3.5175 15.2043 3.8325 14.8887 4.2C14.573 4.5675 14.31 4.9875 14.1521 5.46C13.9943 5.9325 13.8891 6.4575 13.8891 6.93V17.85C13.8891 18.1125 13.7839 18.27 13.5208 18.27H11.0481C10.7851 18.27 10.6272 18.165 10.6272 17.9025V6.93C10.6272 5.9325 10.3642 4.935 9.78548 4.1475C9.20677 3.36 8.3124 2.94 7.04976 2.94C6.52365 2.94 5.94494 3.045 5.47145 3.255C4.94535 3.4125 4.52447 3.7275 4.20881 4.095C3.89315 4.4625 3.68271 4.935 3.52488 5.355C3.36705 5.8275 3.26183 6.3525 3.26183 6.8775V17.7975C3.26183 18.06 3.15661 18.2175 2.89356 18.2175H0.420881C0.15783 18.2175 0 18.1125 0 17.85V6.93C0 5.985 0.15783 5.0925 0.473491 4.2C0.789152 3.4125 1.21003 2.6775 1.84135 2.0475C2.42007 1.4175 3.20922 0.8925 3.99837 0.5775C4.94535 0.21 5.94494 0.0525 6.99715 0.0525C7.99674 0.0525 8.99633 0.2625 9.8907 0.6825C10.6799 1.1025 11.4164 1.6275 11.9951 2.31C12.1529 2.52 12.3108 2.52 12.4686 2.3625C13.0473 1.68 13.7839 1.155 14.6256 0.735C15.5726 0.2625 16.6774 0.0525 17.7296 0.0525C18.7292 0.0525 19.7814 0.21 20.7284 0.5775C21.5175 0.8925 22.2541 1.365 22.8328 1.995C23.4115 2.625 23.8324 3.36 24.0954 4.1475C24.3585 5.04 24.5163 5.985 24.5163 6.8775V17.745C24.4637 18.1125 24.3585 18.2175 24.0954 18.2175ZM51.9788 11.55C51.9788 13.755 51.3475 15.435 50.0322 16.6425C48.717 17.85 46.9808 18.4275 44.7712 18.4275C42.509 18.4275 40.7202 17.85 39.4576 16.6425C38.1949 15.435 37.5636 13.755 37.5636 11.55V6.8775C37.5636 4.7775 38.1949 3.0975 39.405 1.89C40.615 0.6825 42.4038 0.0525 44.7186 0.0525C47.0334 0.0525 48.8222 0.63 50.0848 1.8375C51.3475 3.045 51.9788 4.725 51.9788 6.8775V11.55ZM48.717 6.8775C48.7696 5.8275 48.4013 4.7775 47.77 3.99C47.1387 3.255 46.1391 2.8875 44.8238 2.835C43.7716 2.7825 42.7194 3.2025 41.9829 3.9375C41.2463 4.725 40.8781 5.775 40.9307 6.825V11.55C40.8781 12.6 41.1937 13.5975 41.825 14.4375C42.4038 15.1725 43.4033 15.5925 44.8238 15.5925C46.2443 15.5925 47.2439 15.225 47.8226 14.49C48.4013 13.7025 48.717 12.6525 48.717 11.6025V6.8775ZM67.8144 0.3675C68.0775 0.3675 68.2353 0.4725 68.2353 0.735V2.6775C68.2353 2.7825 68.2879 2.8875 68.3932 2.94C68.4984 2.9925 68.6036 2.94 68.7088 2.7825C69.2349 2.0475 69.8662 1.47 70.6554 0.945C71.4972 0.3675 72.4967 0.105 73.4963 0.105C73.6542 0.105 73.8646 0.105 74.1277 0.105C74.2855 0.105 74.4433 0.1575 74.6012 0.21C74.8116 0.2625 74.9694 0.315 74.9694 0.42C75.022 0.525 75.022 0.6825 74.9694 0.7875L74.4959 3.2025C74.4433 3.4125 74.3907 3.57 74.2855 3.57C74.1803 3.6225 74.0751 3.6225 73.9698 3.57C73.6016 3.465 73.1807 3.465 72.8124 3.465C71.2867 3.465 70.2345 3.885 69.6032 4.7775C68.9719 5.775 68.6562 6.93 68.7088 8.085V17.7975C68.7088 18.06 68.6036 18.2175 68.3405 18.2175H65.7626C65.4996 18.2175 65.3418 18.1125 65.3418 17.85V0.735C65.3418 0.4725 65.447 0.315 65.71 0.315L67.8144 0.3675ZM100.327 9.03C100.327 9.2925 100.222 9.555 100.064 9.765C99.9066 9.9225 99.7488 10.0275 99.5383 10.0275H89.9633C89.7529 10.0275 89.595 10.08 89.4372 10.2375C89.2794 10.395 89.2268 10.5525 89.2268 10.7625V11.55C89.2268 12.075 89.2794 12.6 89.4372 13.125C89.7002 14.1225 90.3842 14.9625 91.3312 15.33C91.9099 15.54 92.5412 15.645 93.1725 15.645C93.9617 15.645 94.6982 15.435 95.3821 15.0675C96.0661 14.7 96.6448 14.175 97.0657 13.545C97.2235 13.2825 97.5392 13.23 97.8022 13.335C97.8548 13.335 97.8548 13.3875 97.9074 13.3875L99.3279 14.385C99.6436 14.595 99.7488 14.805 99.6436 15.015C99.0648 16.17 98.1179 17.0625 96.9604 17.5875C95.803 18.1125 94.5404 18.4275 93.2251 18.375C91.0155 18.375 89.2268 17.745 87.9115 16.5375C86.5436 15.2775 85.8597 13.4925 85.9123 11.655V7.035C85.9123 6.0375 86.0702 5.0925 86.4384 4.2C86.7541 3.36 87.2802 2.5725 87.9115 1.9425C88.5428 1.3125 89.332 0.84 90.1737 0.525C91.0681 0.1575 92.0677 0 93.0673 0C94.0669 0 95.0665 0.1575 96.0135 0.525C96.8552 0.84 97.6444 1.3125 98.3283 1.9425C98.9596 2.5725 99.4331 3.36 99.7488 4.2C100.117 5.0925 100.275 6.09 100.275 7.035L100.327 9.03ZM93.1725 2.8875C91.1207 2.7825 89.4372 4.3575 89.332 6.405C89.332 6.51 89.332 6.5625 89.332 6.6675V6.93C89.332 7.035 89.3846 7.1925 89.4372 7.245C89.5424 7.35 89.7529 7.4025 89.9107 7.4025H96.6448C96.9078 7.4025 97.0657 7.245 97.0657 6.93V6.5625C97.0657 5.6175 96.75 4.6725 96.0661 3.9375C95.3295 3.2025 94.2247 2.7825 93.1725 2.8875ZM127.369 11.55C127.369 13.755 126.738 15.435 125.423 16.6425C124.107 17.85 122.371 18.4275 120.162 18.4275C117.899 18.4275 116.111 17.85 114.848 16.6425C113.585 15.435 112.954 13.755 112.954 11.55V6.8775C112.954 4.7775 113.585 3.0975 114.795 1.89C116.005 0.63 117.794 0.0525 120.109 0.0525C122.424 0.0525 124.212 0.63 125.475 1.8375C126.738 3.045 127.369 4.725 127.369 6.8775V11.55ZM124.055 6.8775C124.107 5.8275 123.739 4.83 123.108 3.99C122.476 3.255 121.477 2.835 120.162 2.835C119.109 2.7825 118.057 3.2025 117.321 3.9375C116.584 4.725 116.216 5.775 116.268 6.825V11.55C116.216 12.6 116.531 13.5975 117.163 14.4375C117.741 15.1725 118.741 15.5925 120.162 15.5925C121.582 15.5925 122.529 15.225 123.16 14.4375C123.792 13.5975 124.16 12.5475 124.107 11.4975V6.8775H124.055ZM154.621 18.2175H152.096C151.938 18.2175 151.728 18.1125 151.728 17.955C151.728 17.9025 151.728 17.9025 151.728 17.85V6.93C151.78 5.88 151.412 4.83 150.728 4.0425C149.939 3.255 148.887 2.835 147.782 2.8875C146.73 2.835 145.677 3.255 144.888 3.99C144.152 4.7775 143.783 5.8275 143.836 6.8775V17.7975C143.889 18.0075 143.731 18.165 143.52 18.2175C143.468 18.2175 143.468 18.2175 143.415 18.2175H140.995C140.732 18.2175 140.574 18.1125 140.574 17.85V0.735C140.574 0.4725 140.679 0.315 140.943 0.315H143.31C143.468 0.315 143.626 0.42 143.678 0.5775C143.678 0.63 143.678 0.63 143.678 0.6825V1.3125C143.678 1.575 143.783 1.68 143.941 1.68C144.047 1.6275 144.152 1.575 144.257 1.5225C145.414 0.5775 146.835 0.0525 148.361 0.105C150.412 0.105 152.043 0.735 153.201 1.9425C154.411 3.3075 155.095 5.0925 154.989 6.8775V17.7975C154.989 18.1125 154.884 18.2175 154.621 18.2175Z" fill="#28B0A9"/>
<path id="Vector_2" d="M21.8859 41.5279C21.9386 41.7379 21.7807 41.9479 21.5703 41.9479C21.5177 41.9479 21.5177 41.9479 21.4651 41.9479H19.7289C19.5185 42.0004 19.308 41.8429 19.308 41.6329C19.308 41.5804 19.308 41.5804 19.308 41.5279V31.1329C19.2554 30.9229 19.4133 30.7129 19.6237 30.7129C19.6763 30.7129 19.6763 30.7129 19.7289 30.7129H26.1474C26.2526 30.7129 26.3578 30.7654 26.4104 30.8179C26.5156 30.9229 26.5156 31.0279 26.5156 31.1329V32.6029C26.5156 32.8654 26.4104 33.0229 26.1474 33.0229H22.2542C22.0964 33.0229 21.9912 33.0754 21.9386 33.1279C21.8859 33.1804 21.8859 33.2854 21.8859 33.3379V34.7554C21.8859 34.8604 21.8859 34.9654 21.9386 35.0179C21.9912 35.0704 22.0964 35.1229 22.2542 35.1229H25.3582C25.5687 35.1229 25.7265 35.2279 25.7791 35.4379C25.7791 35.4904 25.7791 35.4904 25.7791 35.5429V37.0129C25.7791 37.3279 25.6739 37.4329 25.3582 37.4329H22.2542C22.149 37.4329 22.0438 37.4329 21.9386 37.5379C21.8859 37.6429 21.8333 37.7479 21.8333 37.9054L21.8859 41.5279Z" fill="white"/>
<path id="Vector_3" d="M37.9844 41.9479C37.6687 41.9479 37.5635 41.8429 37.5635 41.5804V31.0804C37.5635 30.8179 37.7213 30.7129 37.9844 30.7129H39.7205C39.8257 30.7129 39.9309 30.7129 40.0362 30.8179C40.1414 30.8704 40.194 31.0279 40.1414 31.1329V41.6329C40.1414 41.8954 39.9835 42.0004 39.7205 42.0004H37.9844V41.9479Z" fill="white"/>
<path id="Vector_4" d="M58.976 32.9171C58.9234 33.0221 58.8182 33.0221 58.7129 33.0221H56.819C56.7138 33.0221 56.5559 33.0221 56.5033 33.1271C56.4507 33.1796 56.4507 33.2846 56.4507 33.3896L56.3981 41.6321C56.3981 41.8946 56.2403 41.9996 55.9246 41.9996H54.1885C54.0833 41.9996 53.978 41.9996 53.8728 41.8946C53.7676 41.8421 53.715 41.7371 53.7676 41.6321V33.3896C53.7676 33.2846 53.7676 33.2321 53.715 33.1271C53.6624 33.0746 53.5572 33.0221 53.3993 33.0221H51.7158C51.6106 33.0221 51.5054 32.9696 51.4001 32.9171C51.3475 32.8121 51.2949 32.7071 51.2949 32.6021V31.1846C51.2949 31.0796 51.2949 30.9746 51.4001 30.8696C51.4528 30.7646 51.6106 30.7646 51.7158 30.7646H58.7129C58.9234 30.7646 59.0812 30.9221 59.0812 31.1846V32.6021C59.0286 32.7071 58.976 32.8121 58.976 32.9171Z" fill="white"/>
<path id="Vector_5" d="M77.9155 41.9479H76.758C76.6528 41.9479 76.495 41.9479 76.3898 41.9479C76.2845 41.9479 76.1793 41.8429 76.0741 41.6854L72.7071 36.2779C72.7071 36.2779 72.7071 36.2254 72.6545 36.2779V36.3304V41.6329C72.6545 41.7379 72.6018 41.8429 72.5492 41.8954C72.444 41.9479 72.3388 41.9479 72.181 41.9479H70.6027C70.4974 41.9479 70.3922 41.9479 70.287 41.8954C70.1818 41.8429 70.1292 41.7379 70.1818 41.6329V31.1329C70.1818 30.8704 70.3396 30.7129 70.6553 30.7129H71.8653C72.0231 30.7129 72.1283 30.7129 72.2862 30.7654C72.3914 30.8704 72.4966 30.9754 72.5492 31.0804L75.8111 36.4879C75.8111 36.5404 75.8637 36.5404 75.8637 36.5404L75.9163 36.4879V31.0804C75.9163 30.8179 76.0741 30.7129 76.3898 30.7129H77.9681C78.0733 30.7129 78.1785 30.7129 78.2837 30.8179C78.389 30.8704 78.4416 31.0279 78.389 31.1329V41.5804C78.389 41.8429 78.2311 41.9479 77.9155 41.9479Z" fill="white"/>
<path id="Vector_6" d="M97.0658 39.6379C97.3289 39.6379 97.4341 39.7954 97.4341 40.0579V41.5279C97.4341 41.8429 97.3289 41.9479 97.0658 41.9479H90.6474C90.4369 42.0004 90.2265 41.8429 90.2265 41.6329C90.2265 41.5804 90.2265 41.5804 90.2265 41.5279V31.1329C90.1739 30.9229 90.3317 30.7129 90.5422 30.7129C90.5948 30.7129 90.5948 30.7129 90.6474 30.7129H96.908C97.171 30.7129 97.2763 30.8179 97.2763 31.1329V32.6029C97.2763 32.8654 97.171 33.0229 96.908 33.0229H93.2253C93.1201 33.0229 92.9622 33.0229 92.857 33.1279C92.8044 33.1804 92.7518 33.2854 92.8044 33.3904V34.6504C92.8044 34.7554 92.8044 34.9129 92.9096 35.0179C93.0148 35.1229 93.1201 35.1229 93.2779 35.1229H96.3293C96.4345 35.1229 96.5397 35.1754 96.6449 35.2279C96.6975 35.3329 96.7502 35.4379 96.7502 35.5429V36.9604C96.7502 37.0654 96.7502 37.1704 96.6449 37.2754C96.5923 37.3804 96.4345 37.4329 96.3293 37.3804H93.2253C93.0674 37.3804 92.9622 37.4329 92.9096 37.4854C92.857 37.5904 92.8044 37.6954 92.857 37.8004V39.2704C92.857 39.4279 92.9096 39.5329 92.9622 39.5854C93.0674 39.6379 93.2253 39.6904 93.3831 39.6379H97.0658Z" fill="white"/>
<path id="Vector_7" d="M116.584 38.5877C116.637 39.5852 116.163 40.5302 115.427 41.1602C115.058 41.4752 114.638 41.6852 114.164 41.7902C113.691 41.9477 113.164 42.0002 112.638 42.0002C111.954 42.0002 111.271 41.8952 110.639 41.6852C109.903 41.4752 109.271 41.1077 108.693 40.6352C108.535 40.5302 108.43 40.4252 108.377 40.2677C108.324 40.1627 108.43 40.0052 108.587 39.7952L109.324 38.7977C109.482 38.5877 109.64 38.5352 109.745 38.5352C109.903 38.5877 110.008 38.6402 110.113 38.6927C110.324 38.8502 110.534 38.9552 110.744 39.0602C110.955 39.1652 111.218 39.2702 111.428 39.3752C111.639 39.4802 111.849 39.5327 112.112 39.5852C112.27 39.6377 112.481 39.6377 112.638 39.6377C112.901 39.6377 113.164 39.6377 113.375 39.5327C113.533 39.4802 113.691 39.4277 113.796 39.3227C113.901 39.2177 113.954 39.1127 114.006 39.0077C114.059 38.9027 114.059 38.7977 114.059 38.6927C114.059 38.2727 113.743 37.8527 113.375 37.6952C112.744 37.3802 112.112 37.1177 111.428 36.9077C111.113 36.8027 110.744 36.6452 110.429 36.4877C110.113 36.3302 109.85 36.1202 109.64 35.8577C109.429 35.5952 109.219 35.2802 109.114 34.9652C108.956 34.5977 108.903 34.1777 108.903 33.8102C108.903 33.3377 109.008 32.8652 109.219 32.4452C109.429 32.0252 109.692 31.7102 110.008 31.3952C110.376 31.0802 110.744 30.8702 111.218 30.7127C111.691 30.5552 112.165 30.4502 112.691 30.4502C113.322 30.4502 114.006 30.5027 114.638 30.7127C115.111 30.8702 115.532 31.0277 115.9 31.2902C116.005 31.3427 116.111 31.4477 116.163 31.5527C116.163 31.6577 116.163 31.7627 116.005 32.0252L115.479 33.0752C115.427 33.2852 115.164 33.4427 114.901 33.3377C114.848 33.3377 114.848 33.3377 114.848 33.2852C114.585 33.1802 114.217 33.0227 113.848 32.9177C113.48 32.8127 113.112 32.7077 112.744 32.7077C112.428 32.7077 112.165 32.7602 111.902 32.9177C111.639 33.0752 111.481 33.3902 111.534 33.7052C111.534 33.9152 111.586 34.0727 111.744 34.2302C111.849 34.3877 112.007 34.4927 112.165 34.5977C112.323 34.7027 112.533 34.7552 112.691 34.8602L113.164 35.0177L114.375 35.4377C114.795 35.5952 115.164 35.8052 115.532 36.0677C115.9 36.3302 116.216 36.6452 116.479 37.0127C116.532 37.5902 116.637 38.1152 116.584 38.5877Z" fill="white"/>
<path id="Vector_8" d="M135.682 38.5872C135.682 39.1122 135.576 39.6372 135.366 40.0572C135.156 40.4772 134.893 40.8447 134.524 41.1072C134.156 41.4222 133.735 41.6322 133.262 41.7372C132.788 41.8947 132.262 41.9472 131.736 41.9472C131.052 41.9472 130.368 41.8422 129.684 41.6322C128.948 41.4222 128.316 41.0547 127.738 40.5822C127.58 40.4772 127.474 40.3722 127.422 40.2147C127.422 40.0572 127.474 39.8997 127.632 39.7422L128.369 38.9022C128.527 38.6922 128.685 38.6397 128.79 38.6397C128.948 38.6922 129.053 38.7447 129.158 38.7972C129.368 38.9547 129.579 39.0597 129.789 39.1647C130 39.2697 130.263 39.3747 130.473 39.4797C130.684 39.5847 130.894 39.6372 131.157 39.6897C131.315 39.7422 131.525 39.7422 131.683 39.7422C131.946 39.7422 132.157 39.7422 132.42 39.6372C132.578 39.5847 132.735 39.5322 132.841 39.4272C132.946 39.3222 132.999 39.2172 133.051 39.1122C133.051 39.0072 133.104 38.9022 133.104 38.7972C133.104 38.3772 132.788 37.9572 132.42 37.7997C131.789 37.4847 131.157 37.2222 130.473 37.0122C130.158 36.9072 129.789 36.7497 129.474 36.5922C129.158 36.4347 128.895 36.2247 128.632 35.9622C128.421 35.6997 128.211 35.3847 128.106 35.0697C127.948 34.7022 127.895 34.2822 127.895 33.9147C127.895 33.4422 128.001 32.9697 128.211 32.5497C128.421 32.1297 128.685 31.8147 129.053 31.4997C129.421 31.1847 129.789 30.9747 130.263 30.8172C130.736 30.6597 131.21 30.5547 131.736 30.5547C132.367 30.5547 133.051 30.6072 133.682 30.8172C134.156 30.9222 134.577 31.1322 134.998 31.3947C135.103 31.4472 135.208 31.5522 135.261 31.6572C135.313 31.7622 135.261 31.8672 135.103 32.1297L134.577 33.1797C134.524 33.3897 134.261 33.5472 133.998 33.4422C133.946 33.4422 133.946 33.4422 133.946 33.3897C133.63 33.2322 133.262 33.1272 132.946 33.0222C132.578 32.9172 132.209 32.8122 131.841 32.8122C131.525 32.8122 131.262 32.8647 130.999 33.0222C130.736 33.1797 130.578 33.4947 130.631 33.8097C130.631 34.0197 130.684 34.1772 130.842 34.3347C130.947 34.4922 131.105 34.5972 131.262 34.7022C131.42 34.8072 131.631 34.8597 131.789 34.9647L132.262 35.1222L133.472 35.5422C133.893 35.6997 134.261 35.9097 134.629 36.1722C134.998 36.4347 135.261 36.7497 135.524 37.1172C135.576 37.5897 135.734 38.1147 135.682 38.5872Z" fill="white"/>
</g>
</svg>
